<?xml version="1.0" encoding="UTF-8" standalone="no"?>
<svg width="2666px" height="1333px" viewBox="0 0 2666 1333" version="1.1" xmlns="http://www.w3.org/2000/svg" xmlns:xlink="http://www.w3.org/1999/xlink" xmlns:sketch="http://www.bohemiancoding.com/sketch/ns">
    <!-- Generator: Sketch 3.5 (25232) - http://www.bohemiancoding.com/sketch -->
    <title>180 - iPhone 6 Plus Copy 2</title>
    <desc>Created with Sketch.</desc>
    <defs>
        <linearGradient x1="100%" y1="29.4135183%" x2="0%" y2="29.4135183%" id="linearGradient-1">
            <stop stop-color="#DF4A96" offset="0%"></stop>
            <stop stop-color="#7058E6" offset="13.4876747%"></stop>
            <stop stop-color="#4953E3" offset="28.5548457%"></stop>
            <stop stop-color="#42D5B8" offset="40.9438776%"></stop>
            <stop stop-color="#56E63E" offset="49.6117415%"></stop>
            <stop stop-color="#E4EA4F" offset="61.2033308%"></stop>
            <stop stop-color="#E2BA45" offset="74.4373251%"></stop>
            <stop stop-color="#E88F3E" offset="88.5620083%"></stop>
            <stop stop-color="#DE4040" offset="100%"></stop>
        </linearGradient>
        <path id="path-2" d="M1041.61833,1007.70839 C1038.53835,1015.40081 1042.50734,1023.47843 1050.46502,1025.74504 L1037.68553,1022.10502 C1045.6514,1024.37396 1054.61422,1019.97699 1057.702,1012.29047 L1332.53068,328.148432 C1335.6196,320.459064 1340.5703,320.478288 1343.59208,328.200799 L1607.18695,1001.84937 C1610.20707,1009.56766 1606.28459,1017.92736 1598.55221,1020.47958 L1612.65536,1015.82457 C1604.86641,1018.39546 1596.09026,1014.22203 1593.06269,1006.52688 L1343.7297,372.79833 C1340.69792,365.092469 1335.6786,365.056982 1332.51863,372.719309 L1067.36469,1015.66738 C1064.20476,1023.3296 1068.11074,1031.32278 1076.10266,1033.52443 L1097.64261,1039.45834 C1105.62838,1041.65829 1114.58386,1037.19651 1117.64294,1029.49841 L1332.69937,488.314661 C1335.75947,480.61399 1340.63495,480.646321 1343.58763,488.383163 L1545.72443,1018.03764 C1548.67775,1025.77614 1544.60421,1033.86173 1536.6319,1036.09563 L1550.64292,1032.16964 C1542.66794,1034.40429 1533.84181,1029.93667 1530.92068,1022.16823 L1343.52243,523.802281 C1340.60512,516.044003 1335.79353,516.003454 1332.77027,523.724926 L1133.15325,1033.55093 C1130.1323,1041.26649 1134.12491,1049.44938 1142.05173,1051.82217 L1129.67278,1048.11669 C1137.60822,1050.49206 1146.46141,1046.15883 1149.45061,1038.42861 L1332.83073,564.199266 C1335.81829,556.473317 1340.56636,556.510666 1343.43287,564.274601 L1519.02599,1039.86799 C1521.89384,1047.63554 1530.6785,1052.10253 1538.65429,1049.84323 L1558.3346,1044.26841 C1566.30717,1042.01004 1570.33395,1033.9181 1567.33232,1026.20395 L1343.67807,451.414826 C1340.6748,443.696474 1335.72495,443.667026 1332.62382,451.345188 L1105.06239,1014.77044 C1101.96056,1022.45033 1093.01155,1026.75313 1085.06622,1024.37862 L1096.57865,1027.81918 C1088.6369,1025.44574 1084.74332,1017.3041 1087.88285,1009.63247 L1332.55616,411.760224 C1335.69536,404.089426 1340.66184,404.13746 1343.64378,411.853686 L1579.52469,1022.23316 C1582.50901,1029.95558 1591.42023,1034.49226 1599.4185,1032.36876 L1620.88626,1026.66919 C1628.88899,1024.54451 1632.91904,1016.57016 1629.88907,1008.86162 L1343.72759,280.839207 C1340.69697,273.129038 1335.74087,273.120866 1332.66338,280.80707 L1041.61833,1007.70839 Z"></path>
    </defs>
    <g id="Page-1" stroke="none" stroke-width="1" fill="none" fill-rule="evenodd" sketch:type="MSPage">
        <g id="180---iPhone-6-Plus-Copy-2" sketch:type="MSArtboardGroup">
            <g id="Path-13">
                <use fill="none" sketch:type="MSShapeGroup" xlink:href="#path-2"></use>
                <use fill="url(#linearGradient-1)" fill-rule="evenodd" xlink:href="#path-2"></use>
            </g>
            <path d="M1699,829.094955 C1699,906.988131 1718.73294,951.646884 1747.81306,979.688427 C1776.89318,1007.72997 1814.2819,1015 1848.5549,1015 C1881.78932,1015 1919.17804,1007.72997 1948.25816,979.688427 C1977.33828,951.646884 1997.07122,906.988131 1997.07122,829.094955 L1997.07122,812.477745 L1963.8368,812.477745 L1963.8368,829.094955 C1963.8368,882.062315 1954.48961,920.489614 1934.75668,946.454006 C1915.02374,970.341246 1885.94362,982.804154 1848.5549,982.804154 C1770.66172,982.804154 1732.23442,936.068249 1732.23442,829.094955 L1732.23442,499.866469 C1732.23442,392.893175 1772.73887,347.195846 1848.5549,347.195846 C1923.33234,347.195846 1963.8368,392.893175 1963.8368,499.866469 L1963.8368,516.48368 L1997.07122,516.48368 L1997.07122,499.866469 C1997.07122,424.050445 1977.33828,376.275964 1948.25816,349.272997 C1919.17804,322.27003 1881.78932,315 1848.5549,315 C1814.2819,315 1776.89318,322.27003 1747.81306,349.272997 C1718.73294,376.275964 1699,424.050445 1699,499.866469 L1699,829.094955 Z M2058.34718,315 L2058.34718,1015 L2309.68249,1015 L2309.68249,982.804154 L2090.54303,982.804154 L2090.54303,680.578635 L2278.52522,680.578635 L2278.52522,648.382789 L2090.54303,648.382789 L2090.54303,347.195846 L2309.68249,347.195846 L2309.68249,315 L2058.34718,315 Z" id="CE" fill="#000000" sketch:type="MSShapeGroup"></path>
            <path d="M189.148148,316.037037 L157,316.037037 L157,1015 L189.148148,1015 L189.148148,316.037037 Z M266.925926,829.37037 C266.925926,952.777778 316.703704,1013.96296 416.259259,1013.96296 C512.703704,1013.96296 566.62963,959 566.62963,855.296296 C566.62963,675.888889 299.074074,642.703704 299.074074,476.777778 C299.074074,386.555556 341.592593,348.185185 416.259259,348.185185 C495.074074,348.185185 533.444444,395.888889 533.444444,500.62963 L533.444444,517.222222 L566.62963,517.222222 L566.62963,500.62963 C566.62963,380.333333 514.777778,315 416.259259,315 C320.851852,315 266.925926,375.148148 266.925926,479.888889 C266.925926,660.333333 533.444444,702.851852 533.444444,858.407407 C533.444444,950.703704 490.925926,981.814815 416.259259,981.814815 C391.37037,981.814815 362.333333,977.666667 339.518519,956.925926 C316.703704,936.185185 299.074074,898.851852 299.074074,829.37037 L299.074074,813.814815 L266.925926,813.814815 L266.925926,829.37037 Z M750.185185,1015 C857,1015 904.703704,953.814815 904.703704,832.481481 C904.703704,771.296296 892.259259,725.666667 868.407407,695.592593 C857,682.111111 844.555556,672.777778 830.037037,665.518519 C845.592593,657.222222 857,647.888889 868.407407,634.407407 C892.259259,604.333333 904.703704,558.703704 904.703704,498.555556 C904.703704,377.222222 857,316.037037 750.185185,316.037037 L635.074074,316.037037 L635.074074,1015 L750.185185,1015 Z M750.185185,348.185185 C837.296296,348.185185 871.518519,390.703704 871.518519,498.555556 C871.518519,605.37037 836.259259,648.925926 750.185185,648.925926 L668.259259,648.925926 L668.259259,348.185185 L750.185185,348.185185 Z M750.185185,681.074074 C836.259259,681.074074 871.518519,724.62963 871.518519,832.481481 C871.518519,940.333333 837.296296,982.851852 750.185185,982.851852 L668.259259,982.851852 L668.259259,681.074074 L750.185185,681.074074 Z" id="ISB" fill="#000000" sketch:type="MSShapeGroup"></path>
        </g>
    </g>
</svg>