<?xml version="1.0" encoding="UTF-8" standalone="no"?>
<svg width="2586px" height="233px" viewBox="0 0 2586 233" version="1.1" xmlns="http://www.w3.org/2000/svg" xmlns:xlink="http://www.w3.org/1999/xlink" xmlns:sketch="http://www.bohemiancoding.com/sketch/ns">
    <!-- Generator: Sketch 3.4 (15575) - http://www.bohemiancoding.com/sketch -->
    <title>Trees</title>
    <desc>Created with Sketch.</desc>
    <defs></defs>
    <g id="Page-1" stroke="none" stroke-width="1" fill="none" fill-rule="evenodd" sketch:type="MSPage">
        <g id="Retina-Display" sketch:type="MSArtboardGroup" transform="translate(-294.000000, -1183.000000)">
            <g id="Page-1" sketch:type="MSLayerGroup">
                <g id="Trees" transform="translate(294.000000, 1183.000000)" sketch:type="MSShapeGroup">
                    <g id="Back-Trees" transform="translate(0.000000, 38.000000)" fill="#5D7B33">
                        <path d="M232,0 L283,151.666667 L181,151.666667 L232,0 Z" id="Rectangle-9-Copy-4"></path>
                        <path d="M51,5 L102,156.666667 L0,156.666667 L51,5 Z" id="Rectangle-9-Copy-5"></path>
                        <path d="M729,0 L780,151.666667 L678,151.666667 L729,0 Z" id="Rectangle-9-Copy-6"></path>
                        <path d="M846,0 L897,151.666667 L795,151.666667 L846,0 Z" id="Rectangle-9-Copy-7"></path>
                        <path d="M1905,0 L1956,151.666667 L1854,151.666667 L1905,0 Z" id="Rectangle-9-Copy-8"></path>
                        <path d="M2297,0 L2348,151.666667 L2246,151.666667 L2297,0 Z" id="Rectangle-9-Copy-9"></path>
                        <path d="M2538,0 L2589,151.666667 L2487,151.666667 L2538,0 Z" id="Rectangle-9-Copy-10"></path>
                    </g>
                    <g id="Front-Trees" transform="translate(56.000000, 0.000000)" fill="#72993A">
                        <path d="M76.5,0 L153,227.5 L0,227.5 L76.5,0 Z" id="Rectangle-9"></path>
                        <path d="M840.5,5 L917,232.5 L764,232.5 L840.5,5 Z" id="Rectangle-9-Copy"></path>
                        <path d="M1780.5,5 L1857,232.5 L1704,232.5 L1780.5,5 Z" id="Rectangle-9-Copy-2"></path>
                        <path d="M2292.5,5 L2369,232.5 L2216,232.5 L2292.5,5 Z" id="Rectangle-9-Copy-3"></path>
                    </g>
                </g>
            </g>
        </g>
    </g>
</svg>